<?xml version="1.0" encoding="UTF-8" standalone="no"?>
<!DOCTYPE svg PUBLIC "-//W3C//DTD SVG 1.1//EN"
 "http://www.w3.org/Graphics/SVG/1.1/DTD/svg11.dtd">
<!-- Generated by graphviz version 14.1.3 (20260303.0454)
 -->
<!-- Pages: 1 -->
<svg width="7561pt" height="584pt"
 viewBox="0.00 0.00 7561.00 584.00" xmlns="http://www.w3.org/2000/svg" xmlns:xlink="http://www.w3.org/1999/xlink">
<g id="graph0" class="graph" transform="scale(1 1) rotate(0) translate(4 580)">
<polygon fill="white" stroke="none" points="-4,4 -4,-580 7557,-580 7557,4 -4,4"/>
<!-- **Fundamentals** -->
<g id="node1" class="node">
<title>**Fundamentals**</title>
<polygon fill="#fff8dc" stroke="#ffb300" stroke-width="3" points="1017.88,-576 800.88,-576 800.88,-504 1017.88,-504 1017.88,-576"/>
<text xml:space="preserve" text-anchor="middle" x="909.38" y="-529.58" font-family="Helvetica,sans-Serif" font-weight="bold" font-size="24.00" fill="#000000">**Fundamentals**</text>
</g>
<!-- Python Programming -->
<g id="node2" class="node">
<title>Python Programming</title>
<polygon fill="#fff8dc" stroke="#ffb300" stroke-width="3" points="490,-324 228.75,-324 228.75,-252 490,-252 490,-324"/>
<text xml:space="preserve" text-anchor="middle" x="359.38" y="-277.57" font-family="Helvetica,sans-Serif" font-weight="bold" font-size="24.00" fill="#000000">Python Programming</text>
</g>
<!-- **Fundamentals**&#45;&gt;Python Programming -->
<g id="edge1" class="edge">
<title>**Fundamentals**&#45;&gt;Python Programming</title>
<path fill="none" stroke="#999999" stroke-width="2" d="M831.45,-503.58C731.74,-458.26 559.22,-379.84 452.64,-331.39"/>
<polygon fill="#999999" stroke="#999999" stroke-width="2" points="454.94,-327.06 440.17,-325.72 450.89,-335.98 454.94,-327.06"/>
</g>
<!-- Mathematics for ML -->
<g id="node4" class="node">
<title>Mathematics for ML</title>
<polygon fill="#fff8dc" stroke="#ffb300" stroke-width="3" points="936.38,-324 692.38,-324 692.38,-252 936.38,-252 936.38,-324"/>
<text xml:space="preserve" text-anchor="middle" x="814.38" y="-277.57" font-family="Helvetica,sans-Serif" font-weight="bold" font-size="24.00" fill="#000000">Mathematics for ML</text>
</g>
<!-- **Fundamentals**&#45;&gt;Mathematics for ML -->
<g id="edge3" class="edge">
<title>**Fundamentals**&#45;&gt;Mathematics for ML</title>
<path fill="none" stroke="#999999" stroke-width="2" d="M895.97,-503.71C879.73,-461 852.28,-388.74 833.75,-339.98"/>
<polygon fill="#999999" stroke="#999999" stroke-width="2" points="838.35,-338.29 828.79,-326.94 829.18,-341.77 838.35,-338.29"/>
</g>
<!-- Data Handling -->
<g id="node6" class="node">
<title>Data Handling</title>
<polygon fill="#fff8dc" stroke="#ffb300" stroke-width="3" points="1290.12,-324 1110.62,-324 1110.62,-252 1290.12,-252 1290.12,-324"/>
<text xml:space="preserve" text-anchor="middle" x="1200.38" y="-277.57" font-family="Helvetica,sans-Serif" font-weight="bold" font-size="24.00" fill="#000000">Data Handling</text>
</g>
<!-- **Fundamentals**&#45;&gt;Data Handling -->
<g id="edge5" class="edge">
<title>**Fundamentals**&#45;&gt;Data Handling</title>
<path fill="none" stroke="#999999" stroke-width="2" d="M950.45,-503.71C1001.9,-459.51 1090.18,-383.67 1146.87,-334.97"/>
<polygon fill="#999999" stroke="#999999" stroke-width="2" points="1149.79,-338.92 1157.21,-326.08 1143.4,-331.49 1149.79,-338.92"/>
</g>
<!-- Basic Statistics -->
<g id="node8" class="node">
<title>Basic Statistics</title>
<polygon fill="#fff8dc" stroke="#ffb300" stroke-width="3" points="1798,-324 1602.75,-324 1602.75,-252 1798,-252 1798,-324"/>
<text xml:space="preserve" text-anchor="middle" x="1700.38" y="-277.57" font-family="Helvetica,sans-Serif" font-weight="bold" font-size="24.00" fill="#000000">Basic Statistics</text>
</g>
<!-- **Fundamentals**&#45;&gt;Basic Statistics -->
<g id="edge7" class="edge">
<title>**Fundamentals**&#45;&gt;Basic Statistics</title>
<path fill="none" stroke="#999999" stroke-width="2" d="M1018.12,-504.63C1167.35,-457.47 1434.37,-373.07 1586.34,-325.04"/>
<polygon fill="#999999" stroke="#999999" stroke-width="2" points="1587.72,-329.74 1599.59,-320.85 1584.77,-320.4 1587.72,-329.74"/>
</g>
<!-- Euron&#39;s Python Course (4 weeks) -->
<g id="node3" class="node">
<title>Euron&#39;s Python Course (4 weeks)</title>
<polygon fill="#fff8dc" stroke="#ffb300" stroke-width="3" points="400.75,-72 0,-72 0,0 400.75,0 400.75,-72"/>
<text xml:space="preserve" text-anchor="middle" x="200.38" y="-25.57" font-family="Helvetica,sans-Serif" font-weight="bold" font-size="24.00" fill="#000000">Euron&#39;s Python Course (4 weeks)</text>
</g>
<!-- Python Programming&#45;&gt;Euron&#39;s Python Course (4 weeks) -->
<g id="edge2" class="edge">
<title>Python Programming&#45;&gt;Euron&#39;s Python Course (4 weeks)</title>
<path fill="none" stroke="#999999" stroke-width="2" d="M336.93,-251.71C309.47,-208.53 262.81,-135.17 231.79,-86.39"/>
<polygon fill="#999999" stroke="#999999" stroke-width="2" points="235.98,-83.85 224.33,-74.66 227.71,-89.11 235.98,-83.85"/>
</g>
<!-- Euron&#39;s Math for Data Science (3 weeks) -->
<g id="node5" class="node">
<title>Euron&#39;s Math for Data Science (3 weeks)</title>
<polygon fill="#fff8dc" stroke="#ffb300" stroke-width="3" points="990.25,-72 508.5,-72 508.5,0 990.25,0 990.25,-72"/>
<text xml:space="preserve" text-anchor="middle" x="749.38" y="-25.57" font-family="Helvetica,sans-Serif" font-weight="bold" font-size="24.00" fill="#000000">Euron&#39;s Math for Data Science (3 weeks)</text>
</g>
<!-- Mathematics for ML&#45;&gt;Euron&#39;s Math for Data Science (3 weeks) -->
<g id="edge4" class="edge">
<title>Mathematics for ML&#45;&gt;Euron&#39;s Math for Data Science (3 weeks)</title>
<path fill="none" stroke="#999999" stroke-width="2" d="M805.2,-251.71C794.12,-209.09 775.39,-137.06 762.71,-88.3"/>
<polygon fill="#999999" stroke="#999999" stroke-width="2" points="767.53,-87.36 759.27,-75.04 758.05,-89.82 767.53,-87.36"/>
</g>
<!-- Euron&#39;s Data Analysis &amp; SQL (3 weeks) -->
<g id="node7" class="node">
<title>Euron&#39;s Data Analysis &amp; SQL (3 weeks)</title>
<polygon fill="#fff8dc" stroke="#ffb300" stroke-width="3" points="1564.38,-72 1098.38,-72 1098.38,0 1564.38,0 1564.38,-72"/>
<text xml:space="preserve" text-anchor="middle" x="1331.38" y="-25.57" font-family="Helvetica,sans-Serif" font-weight="bold" font-size="24.00" fill="#000000">Euron&#39;s Data Analysis &amp; SQL (3 weeks)</text>
</g>
<!-- Data Handling&#45;&gt;Euron&#39;s Data Analysis &amp; SQL (3 weeks) -->
<g id="edge6" class="edge">
<title>Data Handling&#45;&gt;Euron&#39;s Data Analysis &amp; SQL (3 weeks)</title>
<path fill="none" stroke="#999999" stroke-width="2" d="M1218.87,-251.71C1241.39,-208.72 1279.61,-135.8 1305.16,-87.03"/>
<polygon fill="#999999" stroke="#999999" stroke-width="2" points="1309.42,-89.47 1311.57,-74.79 1300.73,-84.92 1309.42,-89.47"/>
</g>
<!-- Euron&#39;s Statistics Essentials (2 weeks) -->
<g id="node9" class="node">
<title>Euron&#39;s Statistics Essentials (2 weeks)</title>
<polygon fill="#fff8dc" stroke="#ffb300" stroke-width="3" points="2135.88,-72 1672.88,-72 1672.88,0 2135.88,0 2135.88,-72"/>
<text xml:space="preserve" text-anchor="middle" x="1904.38" y="-25.57" font-family="Helvetica,sans-Serif" font-weight="bold" font-size="24.00" fill="#000000">Euron&#39;s Statistics Essentials (2 weeks)</text>
</g>
<!-- Basic Statistics&#45;&gt;Euron&#39;s Statistics Essentials (2 weeks) -->
<g id="edge8" class="edge">
<title>Basic Statistics&#45;&gt;Euron&#39;s Statistics Essentials (2 weeks)</title>
<path fill="none" stroke="#999999" stroke-width="2" d="M1729.17,-251.71C1764.71,-208.16 1825.31,-133.9 1865.09,-85.14"/>
<polygon fill="#999999" stroke="#999999" stroke-width="2" points="1868.76,-88.4 1873.81,-74.45 1861.16,-82.2 1868.76,-88.4"/>
</g>
<!-- **Specialization** -->
<g id="node10" class="node">
<title>**Specialization**</title>
<polygon fill="#fff8dc" stroke="#ffb300" stroke-width="3" points="3688.38,-576 3474.38,-576 3474.38,-504 3688.38,-504 3688.38,-576"/>
<text xml:space="preserve" text-anchor="middle" x="3581.38" y="-529.58" font-family="Helvetica,sans-Serif" font-weight="bold" font-size="24.00" fill="#000000">**Specialization**</text>
</g>
<!-- Machine Learning Algorithms -->
<g id="node11" class="node">
<title>Machine Learning Algorithms</title>
<polygon fill="#fff8dc" stroke="#ffb300" stroke-width="3" points="2831.62,-324 2475.12,-324 2475.12,-252 2831.62,-252 2831.62,-324"/>
<text xml:space="preserve" text-anchor="middle" x="2653.38" y="-277.57" font-family="Helvetica,sans-Serif" font-weight="bold" font-size="24.00" fill="#000000">Machine Learning Algorithms</text>
</g>
<!-- **Specialization**&#45;&gt;Machine Learning Algorithms -->
<g id="edge9" class="edge">
<title>**Specialization**&#45;&gt;Machine Learning Algorithms</title>
<path fill="none" stroke="#999999" stroke-width="2" d="M3474.02,-510.08C3308.13,-465.39 2989.11,-379.45 2801.43,-328.89"/>
<polygon fill="#999999" stroke="#999999" stroke-width="2" points="2802.8,-324.18 2788.01,-325.27 2800.25,-333.64 2802.8,-324.18"/>
</g>
<!-- Data Preprocessing &amp; Feature Engineering -->
<g id="node13" class="node">
<title>Data Preprocessing &amp; Feature Engineering</title>
<polygon fill="#fff8dc" stroke="#ffb300" stroke-width="3" points="3524.75,-324 3016,-324 3016,-252 3524.75,-252 3524.75,-324"/>
<text xml:space="preserve" text-anchor="middle" x="3270.38" y="-277.57" font-family="Helvetica,sans-Serif" font-weight="bold" font-size="24.00" fill="#000000">Data Preprocessing &amp; Feature Engineering</text>
</g>
<!-- **Specialization**&#45;&gt;Data Preprocessing &amp; Feature Engineering -->
<g id="edge11" class="edge">
<title>**Specialization**&#45;&gt;Data Preprocessing &amp; Feature Engineering</title>
<path fill="none" stroke="#999999" stroke-width="2" d="M3537.48,-503.71C3482.45,-459.48 3388.01,-383.57 3327.43,-334.87"/>
<polygon fill="#999999" stroke="#999999" stroke-width="2" points="3330.64,-331.16 3316.66,-326.21 3324.5,-338.8 3330.64,-331.16"/>
</g>
<!-- Model Development &amp; Evaluation -->
<g id="node15" class="node">
<title>Model Development &amp; Evaluation</title>
<polygon fill="#fff8dc" stroke="#ffb300" stroke-width="3" points="4063,-324 3663.75,-324 3663.75,-252 4063,-252 4063,-324"/>
<text xml:space="preserve" text-anchor="middle" x="3863.38" y="-277.57" font-family="Helvetica,sans-Serif" font-weight="bold" font-size="24.00" fill="#000000">Model Development &amp; Evaluation</text>
</g>
<!-- **Specialization**&#45;&gt;Model Development &amp; Evaluation -->
<g id="edge13" class="edge">
<title>**Specialization**&#45;&gt;Model Development &amp; Evaluation</title>
<path fill="none" stroke="#999999" stroke-width="2" d="M3621.18,-503.71C3670.94,-459.6 3756.23,-383.99 3811.18,-335.28"/>
<polygon fill="#999999" stroke="#999999" stroke-width="2" points="3814.28,-339.07 3821.51,-326.12 3807.78,-331.74 3814.28,-339.07"/>
</g>
<!-- Deployment &amp; MLOps -->
<g id="node17" class="node">
<title>Deployment &amp; MLOps</title>
<polygon fill="#fff8dc" stroke="#ffb300" stroke-width="3" points="4599.38,-324 4331.38,-324 4331.38,-252 4599.38,-252 4599.38,-324"/>
<text xml:space="preserve" text-anchor="middle" x="4465.38" y="-277.57" font-family="Helvetica,sans-Serif" font-weight="bold" font-size="24.00" fill="#000000">Deployment &amp; MLOps</text>
</g>
<!-- **Specialization**&#45;&gt;Deployment &amp; MLOps -->
<g id="edge15" class="edge">
<title>**Specialization**&#45;&gt;Deployment &amp; MLOps</title>
<path fill="none" stroke="#999999" stroke-width="2" d="M3688.45,-508.72C3847.58,-463.72 4146.72,-379.12 4323.78,-329.04"/>
<polygon fill="#999999" stroke="#999999" stroke-width="2" points="4324.94,-333.81 4337.08,-325.28 4322.28,-324.38 4324.94,-333.81"/>
</g>
<!-- Euron&#39;s Machine Learning Fundamentals (4 weeks) -->
<g id="node12" class="node">
<title>Euron&#39;s Machine Learning Fundamentals (4 weeks)</title>
<polygon fill="#fff8dc" stroke="#ffb300" stroke-width="3" points="2850.88,-72 2243.88,-72 2243.88,0 2850.88,0 2850.88,-72"/>
<text xml:space="preserve" text-anchor="middle" x="2547.38" y="-25.57" font-family="Helvetica,sans-Serif" font-weight="bold" font-size="24.00" fill="#000000">Euron&#39;s Machine Learning Fundamentals (4 weeks)</text>
</g>
<!-- Machine Learning Algorithms&#45;&gt;Euron&#39;s Machine Learning Fundamentals (4 weeks) -->
<g id="edge10" class="edge">
<title>Machine Learning Algorithms&#45;&gt;Euron&#39;s Machine Learning Fundamentals (4 weeks)</title>
<path fill="none" stroke="#999999" stroke-width="2" d="M2638.41,-251.71C2620.26,-208.9 2589.53,-136.43 2568.86,-87.66"/>
<polygon fill="#999999" stroke="#999999" stroke-width="2" points="2573.42,-85.87 2563.44,-74.9 2564.4,-89.7 2573.42,-85.87"/>
</g>
<!-- Euron&#39;s Data Preparation Techniques (2 weeks) -->
<g id="node14" class="node">
<title>Euron&#39;s Data Preparation Techniques (2 weeks)</title>
<polygon fill="#fff8dc" stroke="#ffb300" stroke-width="3" points="3521.38,-72 2959.38,-72 2959.38,0 3521.38,0 3521.38,-72"/>
<text xml:space="preserve" text-anchor="middle" x="3240.38" y="-25.57" font-family="Helvetica,sans-Serif" font-weight="bold" font-size="24.00" fill="#000000">Euron&#39;s Data Preparation Techniques (2 weeks)</text>
</g>
<!-- Data Preprocessing &amp; Feature Engineering&#45;&gt;Euron&#39;s Data Preparation Techniques (2 weeks) -->
<g id="edge12" class="edge">
<title>Data Preprocessing &amp; Feature Engineering&#45;&gt;Euron&#39;s Data Preparation Techniques (2 weeks)</title>
<path fill="none" stroke="#999999" stroke-width="2" d="M3266.14,-251.71C3261.05,-209.28 3252.46,-137.69 3246.61,-88.94"/>
<polygon fill="#999999" stroke="#999999" stroke-width="2" points="3251.48,-88.43 3244.95,-75.11 3241.75,-89.6 3251.48,-88.43"/>
</g>
<!-- Euron&#39;s ML Model Building &amp; Validation (3 weeks) -->
<g id="node16" class="node">
<title>Euron&#39;s ML Model Building &amp; Validation (3 weeks)</title>
<polygon fill="#fff8dc" stroke="#ffb300" stroke-width="3" points="4219.25,-72 3629.5,-72 3629.5,0 4219.25,0 4219.25,-72"/>
<text xml:space="preserve" text-anchor="middle" x="3924.38" y="-25.57" font-family="Helvetica,sans-Serif" font-weight="bold" font-size="24.00" fill="#000000">Euron&#39;s ML Model Building &amp; Validation (3 weeks)</text>
</g>
<!-- Model Development &amp; Evaluation&#45;&gt;Euron&#39;s ML Model Building &amp; Validation (3 weeks) -->
<g id="edge14" class="edge">
<title>Model Development &amp; Evaluation&#45;&gt;Euron&#39;s ML Model Building &amp; Validation (3 weeks)</title>
<path fill="none" stroke="#999999" stroke-width="2" d="M3871.99,-251.71C3882.36,-209.18 3899.88,-137.37 3911.78,-88.62"/>
<polygon fill="#999999" stroke="#999999" stroke-width="2" points="3916.53,-89.81 3915.09,-75.05 3907.01,-87.49 3916.53,-89.81"/>
</g>
<!-- Euron’s MLOps &amp; Deployment Practices (2 weeks) -->
<g id="node18" class="node">
<title>Euron’s MLOps &amp; Deployment Practices (2 weeks)</title>
<polygon fill="#fff8dc" stroke="#ffb300" stroke-width="3" points="4921.12,-72 4327.62,-72 4327.62,0 4921.12,0 4921.12,-72"/>
<text xml:space="preserve" text-anchor="middle" x="4624.38" y="-25.57" font-family="Helvetica,sans-Serif" font-weight="bold" font-size="24.00" fill="#000000">Euron’s MLOps &amp; Deployment Practices (2 weeks)</text>
</g>
<!-- Deployment &amp; MLOps&#45;&gt;Euron’s MLOps &amp; Deployment Practices (2 weeks) -->
<g id="edge16" class="edge">
<title>Deployment &amp; MLOps&#45;&gt;Euron’s MLOps &amp; Deployment Practices (2 weeks)</title>
<path fill="none" stroke="#999999" stroke-width="2" d="M4487.82,-251.71C4515.28,-208.53 4561.94,-135.17 4592.96,-86.39"/>
<polygon fill="#999999" stroke="#999999" stroke-width="2" points="4597.04,-89.11 4600.42,-74.66 4588.77,-83.85 4597.04,-89.11"/>
</g>
<!-- **Deep Learning** -->
<g id="node19" class="node">
<title>**Deep Learning**</title>
<polygon fill="#fff8dc" stroke="#ffb300" stroke-width="3" points="5734.75,-576 5514,-576 5514,-504 5734.75,-504 5734.75,-576"/>
<text xml:space="preserve" text-anchor="middle" x="5624.38" y="-529.58" font-family="Helvetica,sans-Serif" font-weight="bold" font-size="24.00" fill="#000000">**Deep Learning**</text>
</g>
<!-- Neural Networks &amp; CNNs -->
<g id="node20" class="node">
<title>Neural Networks &amp; CNNs</title>
<polygon fill="#fff8dc" stroke="#ffb300" stroke-width="3" points="5501.62,-324 5199.12,-324 5199.12,-252 5501.62,-252 5501.62,-324"/>
<text xml:space="preserve" text-anchor="middle" x="5350.38" y="-277.57" font-family="Helvetica,sans-Serif" font-weight="bold" font-size="24.00" fill="#000000">Neural Networks &amp; CNNs</text>
</g>
<!-- **Deep Learning**&#45;&gt;Neural Networks &amp; CNNs -->
<g id="edge17" class="edge">
<title>**Deep Learning**&#45;&gt;Neural Networks &amp; CNNs</title>
<path fill="none" stroke="#999999" stroke-width="2" d="M5585.7,-503.71C5537.46,-459.69 5454.83,-384.31 5401.43,-335.58"/>
<polygon fill="#999999" stroke="#999999" stroke-width="2" points="5404.74,-331.97 5391.09,-326.15 5398.13,-339.21 5404.74,-331.97"/>
</g>
<!-- Transfer Learning &amp; NLP -->
<g id="node22" class="node">
<title>Transfer Learning &amp; NLP</title>
<polygon fill="#fff8dc" stroke="#ffb300" stroke-width="3" points="5979.5,-324 5679.25,-324 5679.25,-252 5979.5,-252 5979.5,-324"/>
<text xml:space="preserve" text-anchor="middle" x="5829.38" y="-277.57" font-family="Helvetica,sans-Serif" font-weight="bold" font-size="24.00" fill="#000000">Transfer Learning &amp; NLP</text>
</g>
<!-- **Deep Learning**&#45;&gt;Transfer Learning &amp; NLP -->
<g id="edge19" class="edge">
<title>**Deep Learning**&#45;&gt;Transfer Learning &amp; NLP</title>
<path fill="none" stroke="#999999" stroke-width="2" d="M5653.31,-503.71C5689.02,-460.16 5749.92,-385.9 5789.9,-337.14"/>
<polygon fill="#999999" stroke="#999999" stroke-width="2" points="5793.58,-340.38 5798.67,-326.45 5786,-334.17 5793.58,-340.38"/>
</g>
<!-- Euron’s Deep Learning Modules (4 weeks) -->
<g id="node21" class="node">
<title>Euron’s Deep Learning Modules (4 weeks)</title>
<polygon fill="#fff8dc" stroke="#ffb300" stroke-width="3" points="5531.38,-72 5029.38,-72 5029.38,0 5531.38,0 5531.38,-72"/>
<text xml:space="preserve" text-anchor="middle" x="5280.38" y="-25.57" font-family="Helvetica,sans-Serif" font-weight="bold" font-size="24.00" fill="#000000">Euron’s Deep Learning Modules (4 weeks)</text>
</g>
<!-- Neural Networks &amp; CNNs&#45;&gt;Euron’s Deep Learning Modules (4 weeks) -->
<g id="edge18" class="edge">
<title>Neural Networks &amp; CNNs&#45;&gt;Euron’s Deep Learning Modules (4 weeks)</title>
<path fill="none" stroke="#999999" stroke-width="2" d="M5340.49,-251.71C5328.56,-209.09 5308.39,-137.06 5294.74,-88.3"/>
<polygon fill="#999999" stroke="#999999" stroke-width="2" points="5299.52,-87.18 5291.02,-75.02 5290.08,-89.83 5299.52,-87.18"/>
</g>
<!-- Euron&#39;s Advanced Deep Learning Techniques (3 weeks) -->
<g id="node23" class="node">
<title>Euron&#39;s Advanced Deep Learning Techniques (3 weeks)</title>
<polygon fill="#fff8dc" stroke="#ffb300" stroke-width="3" points="6299.12,-72 5639.62,-72 5639.62,0 6299.12,0 6299.12,-72"/>
<text xml:space="preserve" text-anchor="middle" x="5969.38" y="-25.57" font-family="Helvetica,sans-Serif" font-weight="bold" font-size="24.00" fill="#000000">Euron&#39;s Advanced Deep Learning Techniques (3 weeks)</text>
</g>
<!-- Transfer Learning &amp; NLP&#45;&gt;Euron&#39;s Advanced Deep Learning Techniques (3 weeks) -->
<g id="edge20" class="edge">
<title>Transfer Learning &amp; NLP&#45;&gt;Euron&#39;s Advanced Deep Learning Techniques (3 weeks)</title>
<path fill="none" stroke="#999999" stroke-width="2" d="M5849.14,-251.71C5873.27,-208.62 5914.23,-135.48 5941.54,-86.71"/>
<polygon fill="#999999" stroke="#999999" stroke-width="2" points="5945.67,-89.36 5948.23,-74.75 5937.12,-84.57 5945.67,-89.36"/>
</g>
<!-- **Practical Projects &amp; Portfolio** -->
<g id="node24" class="node">
<title>**Practical Projects &amp; Portfolio**</title>
<polygon fill="#fff8dc" stroke="#ffb300" stroke-width="3" points="6849.88,-576 6464.88,-576 6464.88,-504 6849.88,-504 6849.88,-576"/>
<text xml:space="preserve" text-anchor="middle" x="6657.38" y="-529.58" font-family="Helvetica,sans-Serif" font-weight="bold" font-size="24.00" fill="#000000">**Practical Projects &amp; Portfolio**</text>
</g>
<!-- Hands&#45;on ML Projects -->
<g id="node25" class="node">
<title>Hands&#45;on ML Projects</title>
<polygon fill="#fff8dc" stroke="#ffb300" stroke-width="3" points="6793.25,-324 6521.5,-324 6521.5,-252 6793.25,-252 6793.25,-324"/>
<text xml:space="preserve" text-anchor="middle" x="6657.38" y="-277.57" font-family="Helvetica,sans-Serif" font-weight="bold" font-size="24.00" fill="#000000">Hands&#45;on ML Projects</text>
</g>
<!-- **Practical Projects &amp; Portfolio**&#45;&gt;Hands&#45;on ML Projects -->
<g id="edge21" class="edge">
<title>**Practical Projects &amp; Portfolio**&#45;&gt;Hands&#45;on ML Projects</title>
<path fill="none" stroke="#999999" stroke-width="2" d="M6657.38,-503.71C6657.38,-461.28 6657.38,-389.69 6657.38,-340.94"/>
<polygon fill="#999999" stroke="#999999" stroke-width="2" points="6662.28,-341.14 6657.38,-327.14 6652.48,-341.14 6662.28,-341.14"/>
</g>
<!-- Euron’s Project&#45;Based Learning (4 weeks) -->
<g id="node26" class="node">
<title>Euron’s Project&#45;Based Learning (4 weeks)</title>
<polygon fill="#fff8dc" stroke="#ffb300" stroke-width="3" points="6907.25,-72 6407.5,-72 6407.5,0 6907.25,0 6907.25,-72"/>
<text xml:space="preserve" text-anchor="middle" x="6657.38" y="-25.57" font-family="Helvetica,sans-Serif" font-weight="bold" font-size="24.00" fill="#000000">Euron’s Project&#45;Based Learning (4 weeks)</text>
</g>
<!-- Hands&#45;on ML Projects&#45;&gt;Euron’s Project&#45;Based Learning (4 weeks) -->
<g id="edge22" class="edge">
<title>Hands&#45;on ML Projects&#45;&gt;Euron’s Project&#45;Based Learning (4 weeks)</title>
<path fill="none" stroke="#999999" stroke-width="2" d="M6657.38,-251.71C6657.38,-209.28 6657.38,-137.69 6657.38,-88.94"/>
<polygon fill="#999999" stroke="#999999" stroke-width="2" points="6662.28,-89.14 6657.38,-75.14 6652.48,-89.14 6662.28,-89.14"/>
</g>
<!-- **Career Preparation** -->
<g id="node27" class="node">
<title>**Career Preparation**</title>
<polygon fill="#fff8dc" stroke="#ffb300" stroke-width="3" points="7418.75,-576 7150,-576 7150,-504 7418.75,-504 7418.75,-576"/>
<text xml:space="preserve" text-anchor="middle" x="7284.38" y="-529.58" font-family="Helvetica,sans-Serif" font-weight="bold" font-size="24.00" fill="#000000">**Career Preparation**</text>
</g>
<!-- Resume Building &amp; Interviews -->
<g id="node28" class="node">
<title>Resume Building &amp; Interviews</title>
<polygon fill="#fff8dc" stroke="#ffb300" stroke-width="3" points="7466,-324 7102.75,-324 7102.75,-252 7466,-252 7466,-324"/>
<text xml:space="preserve" text-anchor="middle" x="7284.38" y="-277.57" font-family="Helvetica,sans-Serif" font-weight="bold" font-size="24.00" fill="#000000">Resume Building &amp; Interviews</text>
</g>
<!-- **Career Preparation**&#45;&gt;Resume Building &amp; Interviews -->
<g id="edge23" class="edge">
<title>**Career Preparation**&#45;&gt;Resume Building &amp; Interviews</title>
<path fill="none" stroke="#999999" stroke-width="2" d="M7284.38,-503.71C7284.38,-461.28 7284.38,-389.69 7284.38,-340.94"/>
<polygon fill="#999999" stroke="#999999" stroke-width="2" points="7289.28,-341.14 7284.38,-327.14 7279.48,-341.14 7289.28,-341.14"/>
</g>
<!-- Euron&#39;s Career Readiness Program (2 weeks) -->
<g id="node29" class="node">
<title>Euron&#39;s Career Readiness Program (2 weeks)</title>
<polygon fill="#fff8dc" stroke="#ffb300" stroke-width="3" points="7553,-72 7015.75,-72 7015.75,0 7553,0 7553,-72"/>
<text xml:space="preserve" text-anchor="middle" x="7284.38" y="-25.57" font-family="Helvetica,sans-Serif" font-weight="bold" font-size="24.00" fill="#000000">Euron&#39;s Career Readiness Program (2 weeks)</text>
</g>
<!-- Resume Building &amp; Interviews&#45;&gt;Euron&#39;s Career Readiness Program (2 weeks) -->
<g id="edge24" class="edge">
<title>Resume Building &amp; Interviews&#45;&gt;Euron&#39;s Career Readiness Program (2 weeks)</title>
<path fill="none" stroke="#999999" stroke-width="2" d="M7284.38,-251.71C7284.38,-209.28 7284.38,-137.69 7284.38,-88.94"/>
<polygon fill="#999999" stroke="#999999" stroke-width="2" points="7289.28,-89.14 7284.38,-75.14 7279.48,-89.14 7289.28,-89.14"/>
</g>
</g>
</svg>
